<?xml version="1.0" encoding="UTF-8"?>
<svg version="1.1" xmlns="http://www.w3.org/2000/svg" width="289" height="499">
<path d="M0 0 C11.03727253 10.02239243 19.03774026 21.7493956 21.4921875 36.66357422 C21.58154433 39.15178704 21.62300721 41.61084745 21.61244202 44.0983429 C21.61372365 45.20731022 21.61372365 45.20731022 21.61503118 46.33868092 C21.6166755 48.81069166 21.61118179 51.28263421 21.60571289 53.75463867 C21.60543077 55.52875263 21.60558925 57.3028667 21.6061554 59.07698059 C21.60644239 63.8905908 21.60056148 68.70417612 21.59358144 73.51778054 C21.58733159 78.54930257 21.58674281 83.58082516 21.58555603 88.61235046 C21.58244753 98.13908466 21.57424062 107.66580739 21.56420654 117.19253653 C21.55303047 128.03887745 21.54753118 138.88521892 21.54251111 149.73156416 C21.53205762 172.04224054 21.51446747 194.35290674 21.4921875 216.66357422 C3.32020501 210.28889543 3.32020501 210.28889543 -5.26171875 207.01513672 C-6.45751808 206.5617543 -6.45751808 206.5617543 -7.67747498 206.09921265 C-10.14245286 205.16416082 -12.60640449 204.22644103 -15.0703125 203.28857422 C-16.77532216 202.64125843 -18.48039999 201.9941222 -20.18554688 201.34716797 C-24.29375343 199.78802765 -28.40104457 198.22649972 -32.5078125 196.66357422 C-32.50927906 195.86880991 -32.51074562 195.0740456 -32.51225662 194.25519753 C-32.54935545 174.89071537 -32.60841094 155.52641315 -32.69171524 136.16207314 C-32.73147512 126.79749907 -32.76388309 117.43300867 -32.77880859 108.06835938 C-32.79184095 99.90334359 -32.81884596 91.73851213 -32.86242557 83.57360017 C-32.88500484 79.25282543 -32.90072531 74.93227773 -32.89969635 70.61143875 C-32.89894764 66.53850758 -32.91698244 62.46607762 -32.94898033 58.39327621 C-32.95744877 56.90427184 -32.95925015 55.41521104 -32.95361519 53.92619324 C-32.90657553 39.57683566 -36.3701133 30.25844753 -46.24609375 19.82763672 C-66.67910081 0.48847372 -99.15836911 -4.14860629 -126.21484375 -3.52392578 C-155.23133245 -1.87174137 -183.58670031 2.73311012 -204.5078125 24.66357422 C-211.83393939 33.50395962 -213.95906017 42.45644502 -213.94360352 53.76367188 C-213.95871727 55.37274666 -213.95871727 55.37274666 -213.97413635 57.014328 C-214.0024724 60.53553883 -214.0084846 64.05631923 -214.01171875 67.57763672 C-214.02136583 70.03665337 -214.03145875 72.49566831 -214.04197693 74.9546814 C-214.05989949 80.09726964 -214.06550153 85.23970696 -214.0637207 90.38232422 C-214.06341517 96.96766625 -214.10446108 103.55204273 -214.15603733 110.13715553 C-214.18939963 115.21070803 -214.19547843 120.28402649 -214.19389153 125.35767746 C-214.19742811 127.78575358 -214.21067796 130.21383598 -214.23388863 132.64180374 C-214.26331353 136.03598119 -214.25465116 139.42805365 -214.23657227 142.82226562 C-214.25343079 143.82089127 -214.27028931 144.81951691 -214.28765869 145.84840393 C-214.20763444 151.76645173 -213.2819485 155.01655334 -209.10635281 159.29297447 C-206.54882545 161.48581649 -203.88960029 163.15778677 -200.9453125 164.78857422 C-199.85089844 165.40990234 -198.75648438 166.03123047 -197.62890625 166.67138672 C-188.23919955 171.45518038 -178.02905988 174.57076833 -167.97265625 177.61279297 C-166.13200574 178.17627606 -164.29135605 178.7397618 -162.45073318 179.30333519 C-160.48131363 179.90542051 -158.51122176 180.50525667 -156.54092407 181.10446167 C-152.35795325 182.37683217 -148.17718347 183.65632839 -143.99682617 184.93725586 C-142.52607758 185.38786415 -141.05532867 185.83847144 -139.58457947 186.28907776 C-138.46900823 186.63088672 -138.46900823 186.63088672 -137.33090019 186.97960091 C-135.01801848 187.68803799 -132.70496216 188.39590234 -130.39186096 189.10362244 C-113.17472723 194.37223185 -95.96813792 199.67495368 -78.76582813 204.99174976 C-73.18452662 206.7167652 -67.60234171 208.43887745 -62.01940536 210.15859413 C-58.49901777 211.2437025 -54.97945939 212.33148122 -51.46011734 213.41997528 C-49.82889112 213.92396087 -48.19734996 214.42692855 -46.56545639 214.92874908 C-26.81910814 221.00283873 -9.56441992 226.66191792 5.4921875 241.66357422 C6.05421875 242.20240234 6.61625 242.74123047 7.1953125 243.29638672 C22.48587668 259.31124078 21.95841557 281.05113339 21.92578125 301.63232422 C21.93034968 304.16093078 21.9356572 306.6895361 21.94166565 309.21813965 C21.9505669 314.49995874 21.94844479 319.78166547 21.93823242 325.06347656 C21.92675048 331.13540573 21.9408456 337.20689321 21.9676289 343.27876425 C21.99260055 349.16436535 21.99493999 355.04979678 21.98851204 360.93544006 C21.98835952 363.41993444 21.9943463 365.90443761 22.00680351 368.38890076 C22.10120713 390.29685187 19.56798895 407.40445658 3.5859375 423.68701172 C-17.79552584 444.61848253 -46.37244135 454.94858037 -75.5078125 459.66357422 C-76.36745605 459.81165527 -77.22709961 459.95973633 -78.11279297 460.11230469 C-108.30243141 465.1196559 -142.40953039 465.40538311 -172.5078125 459.66357422 C-173.41096191 459.49196777 -174.31411133 459.32036133 -175.24462891 459.14355469 C-206.05557283 453.02510815 -238.6032928 439.91340384 -257.5 413.67529297 C-266.40884122 400.31203114 -267.95335881 387.4943581 -267.84838867 371.79956055 C-267.84754108 370.01470962 -267.84802011 368.22985765 -267.84971619 366.44500732 C-267.85057242 361.62960349 -267.83300729 356.81442656 -267.81199431 351.99907517 C-267.79316511 346.95558735 -267.79147217 341.9120936 -267.78791809 336.86857605 C-267.77861591 327.33137255 -267.75402696 317.79427294 -267.72386962 308.25711507 C-267.6902686 297.39371978 -267.67382529 286.53031938 -267.65878332 275.66688502 C-267.6274757 253.33239062 -267.57475091 230.99798826 -267.5078125 208.66357422 C-263.60927209 209.22993497 -260.10301493 210.03628864 -256.42041016 211.42944336 C-254.97959579 211.96989037 -254.97959579 211.96989037 -253.50967407 212.52125549 C-252.49070038 212.90982224 -251.47172668 213.29838898 -250.421875 213.69873047 C-249.36495453 214.09684433 -248.30803406 214.49495819 -247.21908569 214.90513611 C-243.85502513 216.17363676 -240.49390856 217.44974209 -237.1328125 218.72607422 C-234.84784644 219.58920809 -232.56269224 220.45184405 -230.27734375 221.31396484 C-224.68530663 223.42473577 -219.09566506 225.54175208 -213.5078125 227.66357422 C-213.50634594 228.46257047 -213.50487938 229.26156672 -213.50336838 230.08477497 C-213.46625926 249.55809484 -213.40719018 269.03123592 -213.32390976 288.50441456 C-213.28416065 297.92164698 -213.25174722 307.33879634 -213.23681641 316.75610352 C-213.22377845 324.96764002 -213.19675923 333.17899344 -213.15319943 341.39042681 C-213.1306327 345.73526632 -213.11489893 350.0798804 -213.11592865 354.42478371 C-213.11667811 358.5215189 -213.09861366 362.6177567 -213.06664467 366.7143631 C-213.05818553 368.2110104 -213.05636842 369.70771374 -213.06200981 371.20437431 C-213.10345096 383.8978277 -211.05034102 393.95992532 -202.5078125 403.66357422 C-201.77304688 404.53755859 -201.77304688 404.53755859 -201.0234375 405.42919922 C-185.29850444 422.71105634 -158.79325515 428.03002857 -136.5078125 429.66357422 C-105.46829486 430.96060357 -71.22991124 428.87872221 -46.55078125 407.58935547 C-39.51231381 400.95462421 -32.98895999 392.47552465 -32.37079811 382.43899727 C-32.36522581 381.62455084 -32.35965351 380.81010441 -32.35391235 379.97097778 C-32.34531189 379.03176483 -32.33671143 378.09255188 -32.32785034 377.12487793 C-32.32359039 376.10140259 -32.31933044 375.07792725 -32.31494141 374.0234375 C-32.30676392 372.94009125 -32.29858643 371.856745 -32.29016113 370.74057007 C-32.26534464 367.15501456 -32.24880303 363.56949846 -32.234375 359.98388672 C-32.22638948 358.14715204 -32.22638948 358.14715204 -32.21824265 356.27331161 C-32.19153085 349.79549536 -32.17214723 343.31769828 -32.15771484 336.83984375 C-32.14534428 331.47575202 -32.11714263 326.11199062 -32.07568359 320.74804688 C-32.02644256 314.27246562 -32.00160454 307.79722886 -31.99448776 301.32146835 C-31.98776519 298.85348628 -31.97251724 296.38551218 -31.94859695 293.91763687 C-31.91703831 290.46551473 -31.91689508 287.01472806 -31.92431641 283.5625 C-31.90791107 282.54307312 -31.89150574 281.52364624 -31.87460327 280.47332764 C-31.91448421 275.94346175 -31.96837774 272.70574791 -34.89633179 269.10153198 C-49.47357025 255.49289551 -71.1035909 251.15086069 -89.64792252 245.53466797 C-93.13755426 244.4760575 -96.62477539 243.40957213 -100.11206055 242.34326172 C-101.57783392 241.89513779 -103.04360847 241.44701773 -104.50938416 240.99890137 C-105.25058943 240.77228317 -105.9917947 240.54566498 -106.75546074 240.31217957 C-109.05887667 239.60825652 -111.36254645 238.90516966 -113.66627502 238.20227051 C-131.85432549 232.65115073 -150.02092531 227.03069033 -168.18667603 221.40710449 C-172.84434918 219.96532102 -177.50260699 218.52543708 -182.16104889 217.08613968 C-185.6894342 215.99571676 -189.2174599 214.90413401 -192.74538803 213.81223297 C-194.38399078 213.30528833 -196.02272165 212.79875758 -197.66159439 212.29268646 C-223.2569626 204.38754908 -247.12339016 196.93608246 -261 171.97998047 C-268.4463869 156.80080718 -267.96787233 141.46750123 -267.94140625 124.94873047 C-267.94597507 122.44493977 -267.95128271 119.94115033 -267.95729065 117.43736267 C-267.96732676 111.53995305 -267.96129905 105.64269957 -267.95003706 99.7452969 C-267.94285665 95.06731287 -267.95365001 90.3896087 -267.97436523 85.71166992 C-268.00276081 79.21916977 -268.01129392 72.72696029 -268.00413704 66.23440361 C-268.00398464 63.77585546 -268.00996091 61.31729836 -268.02242851 58.85878181 C-268.12413927 35.51917026 -265.05695736 19.97697799 -248.5078125 2.66357422 C-247.97800781 2.05900391 -247.44820312 1.45443359 -246.90234375 0.83154297 C-193.66321409 -57.60832429 -54.92196676 -48.6792173 0 0 Z " fill="#5730BA" transform="translate(267.5078125,36.33642578125)"/>
<path d="M0 0 C2.15267145 -0.00960264 4.30434307 -0.04063747 6.45678711 -0.07226562 C25.95021933 -0.22238805 47.55270274 3.42464086 62.25170898 17.24023438 C70.40095265 26.530072 72.71893916 35.58930839 72.59228516 47.72680664 C72.59272324 48.84002792 72.59316132 49.95324921 72.59361267 51.10020447 C72.59153507 54.7525329 72.56825205 58.40439311 72.54467773 62.05664062 C72.53907814 64.59968312 72.53480976 67.14272886 72.53181458 69.68577576 C72.52155957 75.67795039 72.49795414 81.66992633 72.46776611 87.66202158 C72.43412464 94.48916272 72.41771171 101.31631218 72.4026798 108.14351571 C72.37140134 122.17584686 72.31870207 136.20803149 72.25170898 150.24023438 C61.70884812 147.12988226 61.70884812 147.12988226 57.16918945 145.4309082 C56.29738037 145.106427 55.42557129 144.7819458 54.52734375 144.44763184 C53.65005615 144.11751099 52.77276855 143.78739014 51.86889648 143.44726562 C51.03366455 143.13575562 50.19843262 142.82424561 49.33789062 142.5032959 C46.26617882 141.3566073 43.19656343 140.20438718 40.12670898 139.05273438 C36.40310819 137.65857777 32.67920378 136.26523274 28.95532227 134.87182617 C27.10531138 134.1794714 25.25530491 133.48710482 23.40530396 132.79472351 C22.60549166 132.49539256 21.80567936 132.19606161 20.98163033 131.88766003 C20.41075628 131.67400956 19.83988224 131.4603591 19.25170898 131.24023438 C19.24584274 130.1112825 19.2399765 128.98233063 19.2339325 127.81916809 C19.17672413 117.18081267 19.10397225 106.54266203 19.01599407 95.90451527 C18.97126309 90.43530055 18.93201286 84.96616079 18.90527344 79.49682617 C18.87926786 74.21878978 18.83888463 68.94104144 18.78852272 63.66318321 C18.77183547 61.64939646 18.76033278 59.63555987 18.75409508 57.62171364 C18.7444743 54.80129409 18.71643902 51.98161458 18.68408203 49.16137695 C18.68551712 48.32843613 18.68695221 47.4954953 18.68843079 46.63731384 C18.61373885 42.03503053 18.24095144 38.97701636 15.25170898 35.24023438 C12.61329083 34.14496665 10.0848387 34.11218257 7.24780273 34.10742188 C6.50723633 34.10613281 5.76666992 34.10484375 5.00366211 34.10351562 C4.23989258 34.10738281 3.47612305 34.11125 2.68920898 34.11523438 C1.92157227 34.11136719 1.15393555 34.1075 0.36303711 34.10351562 C-2.9275624 34.10925337 -5.60588009 34.19276407 -8.74829102 35.24023438 C-10.50582464 38.61935403 -11.00221628 41.46907119 -11.02676392 45.24531555 C-11.0379274 46.22823074 -11.04909088 47.21114594 -11.06059265 48.22384644 C-11.06275284 49.29055573 -11.06491302 50.35726501 -11.06713867 51.45629883 C-11.08220711 53.1545153 -11.08220711 53.1545153 -11.09757996 54.88703918 C-11.12844883 58.62585954 -11.14545767 62.36460817 -11.16235352 66.10351562 C-11.18106215 68.69712442 -11.20063533 71.29072711 -11.22103882 73.88432312 C-11.26714977 80.01109287 -11.30454647 86.13785893 -11.33771169 92.26471061 C-11.37596622 99.24177626 -11.42536761 106.21874914 -11.47569585 113.19573653 C-11.57894605 127.54383247 -11.66822887 141.89199124 -11.74829102 156.24023438 C-21.16825535 154.25379884 -21.16825535 154.25379884 -25.70141602 152.56030273 C-26.98689331 152.08487282 -26.98689331 152.08487282 -28.29833984 151.59983826 C-29.63481567 151.09505699 -29.63481567 151.09505699 -30.99829102 150.58007812 C-31.93761475 150.23014297 -32.87693848 149.88020782 -33.84472656 149.51966858 C-35.81216717 148.78537115 -37.77854675 148.04822506 -39.74389648 147.30834961 C-42.76500574 146.17144428 -45.78953051 145.04402751 -48.81469727 143.91796875 C-50.73026695 143.20172017 -52.64563889 142.48494246 -54.56079102 141.76757812 C-55.46796875 141.42903305 -56.37514648 141.09048798 -57.30981445 140.74168396 C-58.14158203 140.42788284 -58.97334961 140.11408173 -59.83032227 139.79077148 C-60.56484619 139.51478622 -61.29937012 139.23880096 -62.05615234 138.95445251 C-63.74829102 138.24023437 -63.74829102 138.24023437 -64.74829102 137.24023438 C-64.86499358 134.16303752 -64.91633076 131.10800266 -64.92529297 128.02978516 C-64.93186417 127.06219772 -64.93843536 126.09461029 -64.94520569 125.09770203 C-64.96500562 121.87698293 -64.97662083 118.65631077 -64.98657227 115.43554688 C-64.99064779 114.33590481 -64.99472332 113.23626274 -64.99892235 112.10329819 C-65.01981919 106.27459651 -65.0341009 100.44591858 -65.04345703 94.6171875 C-65.05448298 88.61067684 -65.08882846 82.6045406 -65.12862873 76.5981617 C-65.1548603 71.97054383 -65.16315506 67.34301388 -65.16673851 62.71532822 C-65.17159356 60.50268929 -65.18317649 58.29005401 -65.2017765 56.07748795 C-65.32105997 40.93756189 -65.18640251 28.32743137 -54.31079102 16.61523438 C-53.46516602 15.83148438 -52.61954102 15.04773437 -51.74829102 14.24023438 C-51.04704102 13.58023438 -50.34579102 12.92023437 -49.62329102 12.24023438 C-35.16379127 2.18145194 -17.13561528 0.04597594 0 0 Z " fill="#929CBE" transform="translate(140.748291015625,46.759765625)"/>
<path d="M0 0 C6.9115523 1.98305385 13.65436323 4.26119639 20.3828125 6.79296875 C21.79323318 7.31930656 21.79323318 7.31930656 23.23214722 7.85627747 C26.19756417 8.96368274 29.16129989 10.0755093 32.125 11.1875 C34.15093156 11.94495602 36.17697226 12.70212019 38.203125 13.45898438 C43.13668224 15.30262075 48.06887172 17.14987744 53 19 C53.00238835 19.62837831 53.00477671 20.25675663 53.00723743 20.90417671 C53.06640679 36.20315331 53.14196915 51.50195392 53.23571491 66.80075264 C53.28065578 74.19918518 53.32007433 81.59756976 53.34643555 88.99609375 C53.36942954 95.44562519 53.40284308 101.89500466 53.44870156 108.34441555 C53.4726151 111.75847359 53.49135603 115.1723813 53.49761391 118.58652115 C53.50722531 122.40051949 53.5352509 126.21396849 53.56762695 130.02783203 C53.56619186 131.15640121 53.56475677 132.2849704 53.5632782 133.44773865 C53.62961738 138.96723861 53.68462765 143.32896684 57 148 C59.69815072 149.03593158 59.69815072 149.03593158 63 149 C63.68449219 149.03738281 64.36898437 149.07476562 65.07421875 149.11328125 C70.33581653 149.28774959 76.13325625 149.18128895 81 147 C83.58502214 143.33579106 83.30648322 139.32501045 83.31884766 135.01855469 C83.32889328 134.2181778 83.3389389 133.4178009 83.34928894 132.59317017 C83.38013199 129.95274562 83.39715914 127.31242252 83.4140625 124.671875 C83.43277325 122.83912279 83.45234659 121.00637919 83.4727478 119.17364502 C83.52408483 114.35356732 83.56370217 109.53346169 83.60089111 104.71325684 C83.64092088 99.79314251 83.69201792 94.87314454 83.7421875 89.953125 C83.8389654 80.30216506 83.92336427 70.65113943 84 61 C90.83655081 62.95658766 97.49084292 65.21184487 104.12890625 67.7578125 C105.04461899 68.1063327 105.96033173 68.45485291 106.90379333 68.81393433 C108.81778116 69.543354 110.73111104 70.27450233 112.64379883 71.00732422 C115.58430412 72.13334958 118.52733376 73.25257919 121.47070312 74.37109375 C123.33608955 75.08293501 125.20132942 75.79516048 127.06640625 76.5078125 C127.94857315 76.84322052 128.83074005 77.17862854 129.73963928 77.52420044 C130.54815842 77.83477386 131.35667755 78.14534729 132.18969727 78.46533203 C132.90344009 78.73830109 133.61718292 79.01127014 134.35255432 79.29251099 C136 80 136 80 137 81 C137.12041107 82.99129546 137.17024986 84.98688502 137.19287109 86.98168945 C137.20893402 88.26425125 137.22499695 89.54681305 137.24154663 90.86824036 C137.25304284 92.28324722 137.26364989 93.69826154 137.2734375 95.11328125 C137.27876118 95.82553549 137.28408485 96.53778973 137.28956985 97.27162743 C137.31635073 101.05257466 137.33569658 104.83348856 137.35009766 108.61450195 C137.36335691 111.72711099 137.39105027 114.83905188 137.43212891 117.95141602 C137.48186504 121.71983877 137.50627034 125.48766229 137.51332474 129.25639915 C137.51997942 130.68395711 137.5350479 132.11150479 137.55921555 133.53887367 C137.74456948 145.16381305 135.96838915 155.70244874 127.6875 164.4375 C113.78257031 178.73058044 92.37454468 182.71963353 73.0546875 183.16796875 C52.31275423 183.3506296 27.9863269 182.07515179 11.484375 167.828125 C7.38227473 163.42216545 4.10801552 158.65616045 2 153 C1.65840851 152.09414658 1.31681702 151.18829315 0.96487427 150.25498962 C-0.71394834 144.26024601 -0.26098688 137.97403835 -0.22705078 131.80297852 C-0.22648604 130.36354073 -0.22680446 128.92410237 -0.22793579 127.48466492 C-0.22850784 123.59259062 -0.21677755 119.70064048 -0.20278788 115.80859494 C-0.19025581 111.73535373 -0.18910807 107.66210944 -0.18673706 103.58885193 C-0.18052956 95.88254322 -0.16412864 88.17629149 -0.14403808 80.47000784 C-0.12165635 71.69372063 -0.11067994 62.91743065 -0.10064721 54.14112198 C-0.07976175 36.09404906 -0.04459999 18.04702912 0 0 Z " fill="#929CBE" transform="translate(76,270)"/>
</svg>
